<svg width="171" height="172" viewBox="0 0 171 172" fill="none" xmlns="http://www.w3.org/2000/svg">
<path d="M159.333 104.333H142.667C140.826 104.333 139.333 105.826 139.333 107.667V134.333C139.333 136.174 140.826 137.667 142.667 137.667H159.333C161.174 137.667 162.667 136.174 162.667 134.333V107.667C162.667 105.826 161.174 104.333 159.333 104.333Z" stroke="#30B78E" stroke-width="4" stroke-linecap="round" stroke-linejoin="round"/>
<path d="M151 131H151.017" stroke="#30B78E" stroke-width="4" stroke-linecap="round" stroke-linejoin="round"/>
<g clip-path="url(#clip0)">
<path d="M86.9556 164.869L22.6148 169.634L14.3333 349.433H49.3704L60.837 213.789L76.1259 271.922L70.7111 351.656H100.652L111.163 263.345L86.9556 164.869Z" fill="#005FEA"/>
<path d="M86 109.913L85.6815 127.702H95.5555L94.9185 108.642L86 109.913Z" fill="#FFAC9D"/>
<path d="M86.637 80.0519C86.637 80.0519 102.881 89.5819 100.333 119.76L85.3629 116.266L86.637 80.0519Z" fill="#FBA09F"/>
<path d="M54.4667 70.2042C38.2222 70.2042 20.0667 75.9222 20.0667 75.9222L20.7037 178.211L88.8667 173.128L88.2296 83.5462C88.2296 81.9579 87.2741 80.3695 86 79.7342L66.8889 71.4749C66.8889 71.4749 57.6518 70.2042 54.4667 70.2042Z" fill="#FBA09F"/>
<path d="M88.2296 117.219V97.2058" stroke="#ED8E8E" stroke-width="0.75" stroke-miterlimit="10"/>
<path d="M28.0296 110.23L23.5703 160.739C23.5703 160.739 18.7926 170.904 10.1926 160.421C1.59255 149.938 8.91848 108.324 8.91848 108.324L28.0296 110.23Z" fill="#FDBC9B"/>
<path d="M30.2593 120.713C30.2593 120.713 35.6741 77.5106 23.8889 75.6046C11.4667 73.3809 0 102.289 0 126.431L30.2593 120.713Z" fill="#FBA09F"/>
<path d="M27.0741 121.031L31.5333 119.76L32.4889 99.4297" stroke="#ED8E8E" stroke-width="0.75" stroke-miterlimit="10"/>
<path d="M57.0148 113.407C57.0148 113.407 59.5629 104.512 68.4815 103.559C77.4 102.606 79.9481 109.595 78.3555 114.36C76.7629 119.125 70.7111 126.431 62.1111 122.619C53.1926 118.807 57.0148 113.407 57.0148 113.407Z" fill="#FDBC9B"/>
<path d="M71.3481 103.559C71.3481 103.559 80.2666 104.512 86.637 107.689C87.274 108.006 87.5926 108.642 87.5926 109.595C87.5926 110.548 86.637 111.183 85.6814 111.183L73.5777 108.959L71.3481 103.559Z" fill="#FDBC9B"/>
<path d="M21.6593 163.598L62.1111 122.619L57.0148 113.407L17.837 138.185L21.6593 163.598Z" fill="#FDBC9B"/>
<path d="M26.1185 133.102L17.837 138.185" stroke="#EFA987" stroke-width="0.4825" stroke-miterlimit="10"/>
<path d="M112.119 123.572L95.237 173.764C94.6 175.352 93.0074 176.623 91.0963 176.305L49.6889 170.905C47.1407 170.587 45.8667 168.046 46.5037 165.822L64.0222 115.631C64.6593 114.042 66.2519 112.772 68.163 113.089L108.933 118.49C111.481 119.125 113.074 121.349 112.119 123.572Z" fill="#090B0C"/>
<path d="M111.482 120.078L113.711 122.619L49.3704 172.175L47.1408 169.316L111.482 120.078Z" fill="#090B0C"/>
<path d="M114.348 126.114L97.4667 176.305C96.8297 177.893 95.2371 179.164 93.3259 178.846L51.9185 173.446C49.3704 173.128 48.0963 170.587 48.7334 168.363L66.2519 118.172C66.8889 116.584 68.4815 115.313 70.3926 115.631L111.163 121.031C113.393 121.349 114.985 123.89 114.348 126.114Z" fill="#3D5057"/>
<path d="M112.437 140.726L108.296 151.209C107.978 152.48 106.385 153.115 105.111 153.115C101.289 152.48 98.7408 148.668 99.6963 144.856L100.652 141.361C101.607 138.502 104.156 136.596 107.022 136.914H109.252C111.8 136.914 113.074 138.82 112.437 140.726Z" fill="#FDBC9B"/>
<path d="M69.1186 54.9562L67.2074 71.4749C66.5704 77.1929 62.7482 80.0519 57.0149 79.0989C52.2371 78.4635 47.4593 75.6045 48.0963 70.5219L50.6445 44.4733L69.1186 54.9562Z" fill="#FDBC9B"/>
<path d="M67.2074 70.2043C67.2074 70.2043 48.4148 63.5333 50.0074 46.697C50.3259 41.6143 69.1185 54.0033 69.1185 54.0033L67.2074 70.2043Z" fill="#EFA987"/>
<path d="M71.3482 73.381L63.3852 69.569L49.0519 69.8866L40.7704 71.1573C40.7704 71.1573 37.5852 83.5463 58.6074 84.1816C75.4889 84.8169 71.3482 73.381 71.3482 73.381Z" fill="#FDBC9B"/>
<path d="M80.2667 33.3549C80.2667 33.3549 96.5111 21.2836 89.1852 10.1653C81.8593 -0.953037 68.4815 8.57695 68.4815 8.57695L80.2667 33.3549Z" fill="#171E21"/>
<path d="M67.2074 5.71804C67.2074 5.71804 21.6593 -0.635282 41.7259 34.6257L46.8222 20.3307L67.2074 5.71804Z" fill="#171E21"/>
<path d="M81.2223 15.5657C81.2223 15.5657 88.8667 21.919 79.3111 35.8963L76.763 18.107L81.2223 15.5657Z" fill="#171E21"/>
<path d="M72.6223 40.026C72.3038 43.838 74.8519 47.3324 78.6741 47.65C82.4964 47.9677 85.6815 45.4264 86.3186 41.6144C86.6371 37.8024 84.089 34.308 80.2667 33.9904C76.4445 33.355 72.9408 36.214 72.6223 40.026Z" fill="#E49D7D"/>
<path d="M62.1111 60.6742C71.6667 61.3095 79.9481 53.6855 80.5852 45.7438L81.8593 28.9075C82.8148 18.7422 75.4889 9.84757 65.9333 8.89458C56.0593 7.62391 45.2296 14.9302 43.9556 25.0955L43.3185 38.1199C42.363 49.8735 50.6445 59.4035 62.1111 60.6742Z" fill="#FDBC9B"/>
<path d="M82.1778 25.0955C82.1778 25.0955 82.8149 20.6482 74.2149 19.6952C65.6149 18.7422 54.4667 19.3775 48.0964 27.0015V39.0728L40.4519 31.4489L44.5926 13.3419L67.8445 5.7179L81.8593 15.2479L82.1778 25.0955Z" fill="#171E21"/>
<path d="M34.4 37.4845C34.0815 41.2965 36.6296 44.7909 40.1334 45.1085C43.9556 45.4262 47.1408 42.8849 47.4593 39.0729C47.7778 35.2609 45.2297 31.7665 41.7259 31.4489C38.2222 30.8135 35.0371 33.6725 34.4 37.4845Z" fill="#FDBC9B"/>
<path d="M74.2149 9.2123C74.2149 9.2123 76.126 3.81198 69.1186 0.95298C62.7482 -1.58835 56.3778 -0.635351 42.363 8.89463L74.2149 9.2123Z" fill="#171E21"/>
<path d="M78.9926 53.0503C78.9926 52.0973 78.3556 51.1443 77.4 50.5089C76.1259 49.8736 73.8963 49.2383 70.3926 48.6029C66.2519 47.9676 60.2 49.2383 57.0148 50.1913C55.7407 50.5089 54.1481 49.8736 53.5111 48.6029C51.2815 44.1556 47.4593 34.308 50.3259 22.5543L45.5481 26.0486L46.1852 33.355C46.1852 33.355 50.0074 41.2966 43.9556 44.791C43.9556 44.791 43.637 61.3096 58.9259 64.4862C63.3852 65.4392 68.4815 64.4862 72.6222 62.5802C75.8074 60.9919 78.9926 57.4976 78.9926 53.0503Z" fill="#171E21"/>
<path d="M48.4148 30.4961C48.4148 30.4961 58.6074 28.2724 54.7852 18.4247C50.963 8.57709 46.1852 20.9661 46.1852 20.9661L48.4148 30.4961Z" fill="#171E21"/>
</g>
<path d="M152.333 31H109.667C106.721 31 104.333 33.3878 104.333 36.3333V63C104.333 65.9455 106.721 68.3333 109.667 68.3333H152.333C155.279 68.3333 157.667 65.9455 157.667 63V36.3333C157.667 33.3878 155.279 31 152.333 31Z" stroke="#30B78E" stroke-width="6" stroke-linecap="round" stroke-linejoin="round"/>
<path d="M120.333 79H141.667" stroke="#30B78E" stroke-width="6" stroke-linecap="round" stroke-linejoin="round"/>
<path d="M131 68.3334V79" stroke="#30B78E" stroke-width="6" stroke-linecap="round" stroke-linejoin="round"/>
<defs>
<clipPath id="clip0">
<rect width="129" height="172" fill="white"/>
</clipPath>
</defs>
</svg>
