<svg width="175" height="80" viewBox="0 0 175 80" fill="none" xmlns="http://www.w3.org/2000/svg">
<g clip-path="url(#clip0)">
<path d="M85.624 0C84.7328 0.330853 83.8295 0.549672 82.989 0.9593L82.3507 1.22538C82.1358 1.30888 81.9267 1.40654 81.7247 1.51772L80.504 2.15317C80.3017 2.25868 80.1054 2.37557 79.9163 2.50328L79.346 2.86915L78.7688 3.22976C78.584 3.3593 78.4061 3.50109 78.2247 3.63414C77.876 3.91247 77.494 4.1593 77.1488 4.44989L76.1408 5.33917L75.8914 5.55974L75.6578 5.80131L75.1939 6.27921L74.73 6.75711C74.5731 6.91291 74.4458 7.09672 74.301 7.26477C74.0255 7.61488 73.736 7.94223 73.464 8.28709L72.7124 9.36893C72.4633 9.72972 72.2328 10.1031 72.0218 10.4875C71.7907 10.8564 71.5817 11.2387 71.3957 11.6324L70.8377 12.807L70.3791 14.0184C69.7964 15.6329 69.4208 17.3152 69.2612 19.0249L69.1932 19.6604C69.1671 19.8722 69.1828 20.0875 69.1758 20.3011C69.1758 20.7265 69.1618 21.1519 69.1496 21.5772C69.1689 22.4271 69.2417 23.2749 69.3676 24.1155C69.4912 24.9533 69.6623 25.7832 69.8803 26.6013C70.1058 27.4155 70.3819 28.2147 70.7069 28.9943C71.3455 30.5619 72.1805 32.0414 73.1919 33.3969C75.221 36.1446 77.8871 38.354 80.9591 39.8337L81.5363 40.1103L82.1275 40.3571C82.5181 40.5322 82.9262 40.66 83.3273 40.8105C84.1406 41.0828 84.9685 41.309 85.8071 41.488C86.6518 41.665 87.5059 41.793 88.3653 41.8713C88.7978 41.8941 89.2372 41.9431 89.6645 41.9449C90.0917 41.9466 90.5364 41.9449 90.9672 41.9449C94.5035 41.8306 97.9616 40.8703 101.054 39.144C104.252 37.3488 106.996 34.8399 109.075 31.8109C107.726 35.312 105.283 38.463 102.158 40.8017C98.952 43.1897 95.172 44.6801 91.2043 45.1203C90.7038 45.1659 90.2034 45.1939 89.7011 45.2306C89.1989 45.2674 88.6949 45.2516 88.1892 45.2604C87.1783 45.2337 86.1701 45.1431 85.1705 44.9891C83.1591 44.6914 81.1962 44.1256 79.3338 43.3068C78.8595 43.1177 78.4131 42.8744 77.9544 42.6538C77.5115 42.4035 77.0546 42.1742 76.6273 41.9011L75.9769 41.4985L75.3473 41.0696C74.9218 40.7895 74.5277 40.4674 74.1266 40.1628C72.5424 38.8843 71.1251 37.4104 69.9082 35.7759C67.4859 32.4984 65.9806 28.6303 65.5486 24.5724C65.4432 23.5707 65.4012 22.5633 65.423 21.5562L65.5241 20.0508C65.5485 19.8022 65.5503 19.5501 65.5939 19.3033L65.716 18.5593L65.8398 17.8171C65.8744 17.5686 65.9239 17.3225 65.988 17.0801L66.3699 15.6271C66.4048 15.5063 66.4327 15.3838 66.4728 15.2648L66.6018 14.9147L66.8599 14.2144L67.1198 13.5142C67.2017 13.2796 67.3256 13.0591 67.4267 12.8315C67.6394 12.3799 67.8487 11.9282 68.0737 11.4836L68.8357 10.2004C69.09 9.7767 69.3677 9.3676 69.6676 8.97505C69.9469 8.56669 70.2491 8.17452 70.5726 7.80044L71.5475 6.68534C71.8962 6.33523 72.245 5.99562 72.6077 5.65602C72.7821 5.49147 72.9565 5.30591 73.1501 5.15886L73.7255 4.69847L74.2888 4.23457L74.5748 4.007L74.8817 3.80394L76.1024 3.00044C76.5175 2.74486 76.9552 2.52779 77.3824 2.30022C77.5969 2.18818 77.8079 2.0709 78.0242 1.96411L78.6938 1.67877L79.3617 1.40044C79.5839 1.29966 79.8116 1.21141 80.0436 1.1361C81.8453 0.510908 83.7219 0.128862 85.624 0V0Z" fill="#30B78E"/>
<path d="M99.125 22.5926V21.3427L94.0677 14.7607L94.0922 8.71078L88.2938 15.2053V14.9235L83.1372 8.19437V1.03638L80.708 3.71822L72.4316 12.8543V29.3095C72.9659 30.4496 73.6132 31.5328 74.3638 32.5427C74.6881 32.9821 75.0369 33.404 75.3979 33.8136V14.0832L80.1709 8.81406V37.7664C80.6347 38.0395 81.1073 38.302 81.5939 38.5349L82.1362 38.7939L82.7274 39.0425C82.9332 39.1353 83.1668 39.2176 83.4162 39.3068C83.547 39.3524 83.6778 39.3996 83.8068 39.4486C84.5575 39.6989 85.3213 39.9075 86.0948 40.0736L86.1349 40.0823C86.9105 40.2442 87.6948 40.3611 88.4839 40.4324L88.9303 40.4622C89.1919 40.4815 89.4378 40.5007 89.6662 40.5007H90.1894H90.9445C94.1388 40.3916 97.2649 39.5433 100.079 38.0219H93.9753L94.0555 19.2561L96.5318 22.5436V24.8753L95.4855 25.7979V32.1524H98.4501V27.2316L102.093 24.0298V36.8001C103.15 36.0709 104.142 35.2509 105.058 34.3493V17.376L99.125 22.5926ZM91.0142 38.0272H83.1372V12.9541L85.5664 16.1786V18.26L83.7876 20.2521L83.7022 30.5804L86.6668 30.6066L86.7418 21.4793L91.1014 16.5987L91.0142 38.0272Z" fill="white"/>
<path d="M78.9571 14.8254H76.5837V17.3007H78.9571V14.8254Z" fill="#043C35"/>
<path d="M78.9571 20.084H76.5837V22.5593H78.9571V20.084Z" fill="#043C35"/>
<path d="M89.9313 21.9397H87.8543V24.415H89.9313V21.9397Z" fill="#043C35"/>
<path d="M89.9313 26.5803H87.8543V29.0556H89.9313V26.5803Z" fill="#043C35"/>
<path d="M101.202 28.7458H99.4214V30.9113H101.202V28.7458Z" fill="#043C35"/>
<path d="M16.0715 67.046C16.2811 67.45 16.3237 67.9207 16.1902 68.3561C16.0568 68.7915 15.7579 69.1566 15.3582 69.3725C13.8282 70.1807 12.1259 70.6048 10.3969 70.6083C4.66485 70.6031 0 65.9816 0 60.2994C0 54.6171 4.66485 49.9939 10.3969 49.9939C12.1259 49.9975 13.8282 50.4215 15.3582 51.2298C15.7575 51.446 16.0561 51.8111 16.1896 52.2464C16.323 52.6816 16.2806 53.1521 16.0715 53.5563C15.8447 53.9612 15.4691 54.2611 15.025 54.392C14.5809 54.5228 14.1035 54.4742 13.6946 54.2565C12.6844 53.7013 11.5485 53.4174 10.3969 53.432C6.59531 53.432 3.47553 56.4937 3.47553 60.2924C3.47553 64.0911 6.59531 67.151 10.3969 67.151C11.5485 67.1656 12.6844 66.8816 13.6946 66.3265C14.1058 66.1104 14.585 66.0646 15.0294 66.1991C15.4737 66.3337 15.8479 66.6377 16.0715 67.046Z" fill="white"/>
<path d="M51.2174 67.9826C51.3405 68.1727 51.4237 68.3859 51.462 68.6094C51.5003 68.8328 51.4928 69.0617 51.4401 69.2822C51.3874 69.5026 51.2906 69.71 51.1554 69.8916C51.0203 70.0733 50.8498 70.2254 50.6542 70.3388C50.3882 70.5103 50.0791 70.602 49.763 70.6031C49.4692 70.6046 49.1796 70.5327 48.9202 70.394C48.6609 70.2553 48.4399 70.054 48.2773 69.8084L44.4408 63.7427H41.5337V68.8963C41.5224 69.353 41.3336 69.7871 41.0078 70.106C40.682 70.4249 40.2449 70.6033 39.7899 70.6031C39.3358 70.6059 38.8992 70.4278 38.5759 70.1078C38.2525 69.7878 38.0689 69.3521 38.0652 68.8963V51.7025C38.0684 51.2464 38.2519 50.8102 38.5753 50.4899C38.8987 50.1695 39.3355 49.9911 39.7899 49.9939H44.5035C45.6771 50.0302 46.8304 50.3109 47.8901 50.8184C50.2077 51.9668 51.486 54.0867 51.486 56.8543C51.4534 58.0229 51.1697 59.1706 50.6542 60.2189C50.0792 61.3697 49.1662 62.3156 48.0384 62.9287L51.2174 67.9826ZM41.5337 60.2994H44.4983C45.9841 60.2994 46.9397 59.7987 47.4995 58.7379C47.8006 58.1538 47.9725 57.5113 48.0035 56.8543C48.0035 55.3821 47.4699 54.4403 46.3398 53.8784C45.7624 53.6068 45.1357 53.4566 44.4983 53.4373H41.5337V60.2994Z" fill="white"/>
<path d="M64.4098 49.9939C64.8649 49.9939 65.3013 50.1754 65.6231 50.4984C65.9449 50.8215 66.1257 51.2596 66.1257 51.7164C66.1257 52.1733 65.9449 52.6114 65.6231 52.9345C65.3013 53.2575 64.8649 53.439 64.4098 53.439H60.9639V68.8963C60.9525 69.353 60.7638 69.787 60.4379 70.1059C60.1121 70.4248 59.6751 70.6032 59.22 70.6031C58.766 70.6059 58.3294 70.4277 58.006 70.1078C57.6827 69.7878 57.499 69.3521 57.4953 68.8963V53.439H54.0111C53.556 53.439 53.1195 53.2575 52.7977 52.9345C52.4759 52.6114 52.2951 52.1733 52.2951 51.7164C52.2951 51.2596 52.4759 50.8215 52.7977 50.4984C53.1195 50.1754 53.556 49.9939 54.0111 49.9939H64.4098Z" fill="white"/>
<path d="M66.2531 60.2993C66.2531 54.617 70.7086 49.9938 76.2036 49.9938C81.6985 49.9938 86.1855 54.617 86.1855 60.2993C86.1855 65.9816 81.7002 70.603 76.2071 70.603C70.7139 70.603 66.2531 65.9816 66.2531 60.2993ZM69.7286 60.2993C69.7286 64.0962 72.6391 67.1579 76.2036 67.1579C79.7994 67.1579 82.7099 64.0962 82.7099 60.2993C82.7099 56.5023 79.7994 53.4389 76.2071 53.4389C72.6391 53.4389 69.7286 56.5006 69.7286 60.2993ZM74.8974 48.9207C74.8382 48.7966 74.8067 48.661 74.805 48.5234C74.8083 48.359 74.8558 48.1986 74.9423 48.059C75.0289 47.9194 75.1513 47.8059 75.2968 47.7304L77.079 46.8236C77.2039 46.7623 77.3411 46.7305 77.4801 46.7308C77.6482 46.7262 77.8142 46.7697 77.9587 46.8561C78.1032 46.9426 78.2203 47.0685 78.2962 47.2192C78.357 47.3371 78.3887 47.468 78.3886 47.6008C78.3897 47.7705 78.3442 47.9372 78.2571 48.0826C78.1701 48.228 78.0448 48.3466 77.8951 48.4253L76.0937 49.3093C75.8816 49.4124 75.638 49.4288 75.4141 49.355C75.1903 49.2812 75.0038 49.123 74.8939 48.9137L74.8974 48.9207Z" fill="white"/>
<path d="M101.575 67.9825C101.698 68.1727 101.781 68.3859 101.82 68.6093C101.858 68.8328 101.85 69.0617 101.798 69.2822C101.745 69.5026 101.648 69.71 101.513 69.8916C101.378 70.0733 101.207 70.2254 101.012 70.3388C100.746 70.5102 100.437 70.6019 100.121 70.6031C99.8268 70.6046 99.5372 70.5327 99.2779 70.394C99.0185 70.2553 98.7976 70.054 98.6349 69.8084L94.7984 63.7427H91.8914V68.8963C91.88 69.3545 91.69 69.7899 91.3623 70.109C91.0347 70.4282 90.5954 70.6056 90.1388 70.6031C89.6849 70.6059 89.2485 70.4277 88.9254 70.1077C88.6024 69.7876 88.4191 69.3519 88.4159 68.8963V51.7025C88.4172 51.4767 88.4629 51.2534 88.5502 51.0454C88.6375 50.8374 88.7648 50.6486 88.9248 50.49C89.0848 50.3313 89.2744 50.2059 89.4827 50.1208C89.691 50.0356 89.9139 49.9925 90.1388 49.9939H94.8664C96.0401 50.0299 97.1934 50.3106 98.253 50.8184C100.565 51.9668 101.842 54.092 101.842 56.8543C101.81 58.0228 101.527 59.1705 101.012 60.2189C100.437 61.3697 99.5238 62.3156 98.396 62.9287L101.575 67.9825ZM91.8914 60.2994H94.856C96.3417 60.2994 97.2974 59.7987 97.8572 58.7379C98.1594 58.1541 98.3319 57.5115 98.3629 56.8543C98.3629 55.3821 97.8275 54.4403 96.6992 53.8784C96.1243 53.6087 95.5007 53.4592 94.8664 53.439H91.9019L91.8914 60.2994Z" fill="white"/>
<path d="M104.072 68.8963V51.7024C104.072 51.2437 104.254 50.8038 104.577 50.4795C104.9 50.1551 105.338 49.9729 105.795 49.9729C106.252 49.9729 106.69 50.1551 107.014 50.4795C107.337 50.8038 107.518 51.2437 107.518 51.7024V68.8963C107.518 69.355 107.337 69.7949 107.014 70.1193C106.69 70.4436 106.252 70.6259 105.795 70.6259C105.338 70.6259 104.9 70.4436 104.577 70.1193C104.254 69.7949 104.072 69.355 104.072 68.8963Z" fill="white"/>
<path d="M109.747 60.2994C109.747 54.6171 114.202 49.9939 119.699 49.9939C125.196 49.9939 129.681 54.6171 129.681 60.2994C129.681 65.9816 125.196 70.6031 119.699 70.6031C114.202 70.6031 109.747 65.9816 109.747 60.2994ZM113.222 60.2994C113.222 64.0963 116.135 67.158 119.699 67.158C123.293 67.158 126.204 64.0963 126.204 60.2994C126.204 56.5024 123.292 53.439 119.699 53.439C116.142 53.439 113.222 56.5007 113.222 60.2994Z" fill="white"/>
<path d="M147.507 68.8964V56.8544L142.842 63.0373C142.68 63.2547 142.469 63.4312 142.227 63.5527C141.985 63.6743 141.718 63.7375 141.447 63.7375C141.176 63.7375 140.909 63.6743 140.667 63.5527C140.425 63.4312 140.214 63.2547 140.052 63.0373L135.387 56.8544V68.8964C135.35 69.3338 135.151 69.7415 134.83 70.0386C134.508 70.3357 134.086 70.5006 133.649 70.5006C133.212 70.5006 132.791 70.3357 132.469 70.0386C132.147 69.7415 131.948 69.3338 131.911 68.8964V51.7025C131.914 51.4745 131.961 51.2492 132.05 51.0396C132.14 50.83 132.27 50.6403 132.433 50.4815C132.596 50.3226 132.789 50.1977 133 50.1141C133.211 50.0304 133.437 49.9896 133.664 49.994C133.929 49.9912 134.191 50.051 134.428 50.1687C134.666 50.2864 134.872 50.4587 135.031 50.6714L141.449 59.1511L147.864 50.6714C148.023 50.4587 148.23 50.2864 148.467 50.1687C148.705 50.051 148.967 49.9912 149.232 49.994C149.458 49.9907 149.683 50.0324 149.893 50.1166C150.103 50.2008 150.295 50.3259 150.457 50.4846C150.619 50.6434 150.748 50.8327 150.837 51.0417C150.926 51.2507 150.973 51.4752 150.975 51.7025V68.8964C150.939 69.3338 150.74 69.7415 150.418 70.0386C150.096 70.3357 149.675 70.5006 149.238 70.5006C148.8 70.5006 148.379 70.3357 148.057 70.0386C147.735 69.7415 147.536 69.3338 147.5 68.8964H147.507Z" fill="#30B78E"/>
<path d="M153.211 68.8963V51.7024C153.211 51.2437 153.393 50.8038 153.716 50.4795C154.039 50.1551 154.477 49.9729 154.934 49.9729C155.391 49.9729 155.829 50.1551 156.152 50.4795C156.475 50.8038 156.657 51.2437 156.657 51.7024V68.8963C156.657 69.355 156.475 69.7949 156.152 70.1193C155.829 70.4436 155.391 70.6259 154.934 70.6259C154.477 70.6259 154.039 70.4436 153.716 70.1193C153.393 69.7949 153.211 69.355 153.211 68.8963Z" fill="#30B78E"/>
<path d="M174.155 67.895C174.361 68.1888 174.475 68.5373 174.483 68.8964C174.464 69.347 174.276 69.7739 173.956 70.0907C173.637 70.4075 173.209 70.5907 172.76 70.6031C172.481 70.6056 172.205 70.5399 171.956 70.4119C171.708 70.2838 171.494 70.0971 171.333 69.8679L166.668 63.3016L162.035 69.8679C161.874 70.0971 161.66 70.2838 161.412 70.4119C161.164 70.5399 160.888 70.6056 160.609 70.6031C160.157 70.5978 159.725 70.417 159.404 70.0987C159.083 69.7804 158.897 69.3494 158.886 68.8964C158.884 68.5357 158.999 68.1843 159.213 67.895L164.56 60.2994L159.215 52.7021C159.003 52.4462 158.886 52.1233 158.887 51.79C158.887 50.906 159.541 49.994 160.61 49.994C160.89 49.9916 161.166 50.0574 161.414 50.1858C161.663 50.3142 161.876 50.5013 162.037 50.7309L166.67 57.2955L171.335 50.7309C171.496 50.5013 171.709 50.3142 171.958 50.1858C172.206 50.0574 172.482 49.9916 172.762 49.994C173.213 50.0014 173.643 50.1832 173.964 50.5014C174.285 50.8197 174.472 51.2499 174.484 51.7025C174.481 52.0617 174.366 52.4109 174.157 52.7021L168.806 60.2994L174.155 67.895Z" fill="#30B78E"/>
<path d="M35.7092 68.2486L28.7878 51.0827C28.6583 50.7578 28.4349 50.4793 28.1463 50.2832C27.8577 50.087 27.5171 49.9822 27.1686 49.9822C26.82 49.9822 26.4795 50.087 26.1909 50.2832C25.9022 50.4793 25.6788 50.7578 25.5494 51.0827L18.628 68.2486C18.5431 68.4536 18.5027 68.6744 18.5094 68.8963C18.5143 69.2971 18.6577 69.6837 18.915 69.9903C19.1723 70.2968 19.5275 70.5043 19.9202 70.5772C20.3128 70.6501 20.7185 70.584 21.068 70.3902C21.4175 70.1963 21.6892 69.8867 21.8367 69.5142L22.8551 67.0109V66.9934L23.1359 66.3055L24.7629 62.3195L27.1799 56.3186L29.5725 62.3195L31.1943 66.3002L31.4489 66.9251L31.482 67.0057L32.5004 69.509C32.629 69.8305 32.8505 70.1061 33.1364 70.3002C33.4224 70.4942 33.7596 70.5979 34.1048 70.5978C34.3302 70.6018 34.5542 70.5605 34.7635 70.4764C34.9729 70.3923 35.1634 70.2671 35.3239 70.1081C35.4843 69.9492 35.6116 69.7596 35.6981 69.5506C35.7846 69.3416 35.8287 69.1173 35.8277 68.891C35.8311 68.6711 35.7908 68.4527 35.7092 68.2486Z" fill="white"/>
<path d="M38.7749 74.3125C38.9643 74.3105 39.1471 74.3824 39.2847 74.513C39.4223 74.6437 39.504 74.8228 39.5126 75.0128V76.4692C39.5126 77.0171 39.2458 77.411 38.6843 77.411H38.3355V79.937H37.9222C37.7844 79.937 37.76 79.8565 37.76 79.8163V74.3125H38.7749ZM38.9493 75.1248C38.9407 75.049 38.9044 74.9791 38.8473 74.9286C38.7903 74.8782 38.7167 74.8508 38.6407 74.8517H38.332V76.8788H38.6407C38.7167 76.8798 38.7903 76.8524 38.8473 76.8019C38.9044 76.7515 38.9407 76.6816 38.9493 76.6058V75.1248Z" fill="#30B78E"/>
<path d="M45.2848 79.944V77.8836C45.2848 77.6106 45.1383 77.523 44.9848 77.523H44.6761V79.944H44.0902V74.3125H45.154C45.341 74.3111 45.521 74.3839 45.6549 74.515C45.7888 74.6461 45.8657 74.825 45.869 75.0127V76.751C45.869 76.751 45.8934 77.1939 45.6579 77.2499C45.8846 77.362 45.869 77.7751 45.869 77.7751V79.9318L45.2848 79.944ZM44.9848 76.9681C45.1383 76.9681 45.2848 76.9033 45.2848 76.646V75.1335C45.2873 75.0939 45.2811 75.0542 45.2667 75.0171C45.2524 74.9801 45.2301 74.9467 45.2016 74.9192C45.173 74.8917 45.1388 74.8708 45.1014 74.8579C45.064 74.845 45.0242 74.8405 44.9848 74.8447H44.6761V76.9681H44.9848Z" fill="#30B78E"/>
<path d="M52.4765 79.9439H51.8347L51.3238 76.0664L50.8111 79.9439H50.1711L51.0308 74.3124H51.3482C51.5906 74.3124 51.6324 74.4647 51.6569 74.6187L52.4765 79.9439ZM51.0814 74.062L51.3988 73.3881H51.8365C51.8365 73.3881 51.9184 73.3793 51.894 73.4441L51.7196 73.8782C51.6981 73.9354 51.6589 73.9841 51.6077 74.0172C51.5565 74.0503 51.4961 74.066 51.4354 74.062H51.0814Z" fill="#30B78E"/>
<path d="M58.6045 74.7308C58.5737 74.7839 58.528 74.8267 58.4731 74.8538C58.4182 74.8809 58.3565 74.8911 58.2958 74.8831H57.8407C57.804 74.8839 57.7689 74.8983 57.7421 74.9235C57.7154 74.9487 57.6989 74.983 57.6959 75.0197V79.944H57.2809C57.1431 79.944 57.1187 79.8634 57.1187 79.8232V74.8831H56.2991V74.4893C56.2991 74.4428 56.3174 74.3983 56.3502 74.3655C56.3829 74.3327 56.4272 74.3142 56.4735 74.3142H58.7963L58.6045 74.7308Z" fill="#30B78E"/>
<path d="M63.3931 74.3125C63.4236 74.3105 63.4542 74.3149 63.483 74.3255C63.5117 74.336 63.538 74.3524 63.5601 74.3736C63.5822 74.3948 63.5997 74.4204 63.6115 74.4487C63.6233 74.4771 63.6291 74.5076 63.6285 74.5383V79.9439H63.2152C63.0775 79.9439 63.053 79.8634 63.0408 79.8232V74.3125H63.3931Z" fill="#30B78E"/>
<path d="M70.3337 79.284C70.3324 79.4707 70.259 79.6497 70.1289 79.7833C69.9988 79.9168 69.8222 79.9945 69.6362 79.9999H69.2787C69.1839 80.0011 69.0897 79.9835 69.0017 79.9481C68.9137 79.9128 68.8334 79.8603 68.7656 79.7939C68.6977 79.7274 68.6436 79.6481 68.6063 79.5606C68.5689 79.4731 68.5491 79.3791 68.548 79.284V74.9724C68.5491 74.8772 68.5689 74.7832 68.6063 74.6957C68.6436 74.6082 68.6977 74.5289 68.7656 74.4625C68.8334 74.396 68.9137 74.3436 69.0017 74.3082C69.0897 74.2728 69.1839 74.2552 69.2787 74.2564H69.6362C69.8226 74.2605 70 74.3378 70.1304 74.4716C70.2608 74.6054 70.3338 74.7852 70.3337 74.9724V75.8336C70.3415 75.8942 70.3308 75.9557 70.3031 76.01C70.2754 76.0644 70.232 76.1091 70.1785 76.1382L69.7547 76.3238V75.0617C69.7547 74.9785 69.7219 74.8988 69.6633 74.8401C69.6048 74.7813 69.5254 74.7483 69.4426 74.7483C69.3598 74.7483 69.2804 74.7813 69.2219 74.8401C69.1633 74.8988 69.1304 74.9785 69.1304 75.0617V79.1719C69.1304 79.255 69.1633 79.3347 69.2219 79.3935C69.2804 79.4523 69.3598 79.4853 69.4426 79.4853C69.5254 79.4853 69.6048 79.4523 69.6633 79.3935C69.7219 79.3347 69.7547 79.255 69.7547 79.1719V78.4244C69.7484 78.3628 69.7597 78.3007 69.7871 78.2452C69.8146 78.1897 69.8572 78.1432 69.91 78.1111C69.9588 78.0866 70.1855 77.9903 70.332 77.9255L70.3337 79.284Z" fill="#30B78E"/>
<path d="M76.153 74.2564C76.34 74.2613 76.5178 74.3386 76.6494 74.472C76.781 74.6054 76.8562 74.7847 76.8593 74.9724V79.2997C76.8544 79.4862 76.7785 79.6637 76.647 79.7956C76.5156 79.9275 76.3388 80.0038 76.153 80.0087H75.7066C75.5169 80.0088 75.3347 79.9349 75.1983 79.8026C75.062 79.6703 74.9822 79.49 74.9759 79.2997V74.9724C74.977 74.8772 74.9968 74.7832 75.0342 74.6957C75.0715 74.6082 75.1256 74.5289 75.1935 74.4625C75.2613 74.396 75.3416 74.3436 75.4296 74.3082C75.5177 74.2728 75.6118 74.2552 75.7066 74.2564H76.153ZM75.9577 79.4923C75.9985 79.4923 76.0389 79.4841 76.0766 79.4684C76.1143 79.4526 76.1485 79.4294 76.1772 79.4003C76.2059 79.3711 76.2286 79.3366 76.2439 79.2986C76.2592 79.2606 76.2668 79.2199 76.2664 79.1789V75.0774C76.267 75.0363 76.2596 74.9954 76.2444 74.9572C76.2292 74.919 76.2066 74.8842 76.1778 74.8549C76.1491 74.8256 76.1148 74.8023 76.077 74.7864C76.0392 74.7705 75.9987 74.7623 75.9577 74.7623H75.8688C75.787 74.7654 75.7095 74.7998 75.6521 74.8583C75.5947 74.9169 75.5618 74.9953 75.5601 75.0774V79.1789C75.5614 79.261 75.5942 79.3394 75.6517 79.3978C75.7093 79.4562 75.787 79.49 75.8688 79.4923H75.9577Z" fill="#30B78E"/>
<path d="M88.6862 77.7717C88.5068 78.0258 88.3973 78.3228 88.3688 78.633V79.1249C88.3697 79.2063 88.4027 79.284 88.4605 79.3411C88.5183 79.3981 88.5963 79.4299 88.6774 79.4294H89.5302L89.8057 79.9371H88.5083C88.3179 79.938 88.1348 79.8632 87.9992 79.7291C87.8636 79.5949 87.7864 79.4123 87.7846 79.2211V78.6172C87.8021 78.2751 87.9118 77.9441 88.102 77.6597L88.5728 76.9682L88.2955 76.4693C88.1329 76.1996 88.0438 75.8917 88.0374 75.5765V75.0058C88.0374 74.8154 88.1095 74.6322 88.239 74.4931C88.3685 74.354 88.5458 74.2695 88.735 74.2566H89.0995C89.2932 74.2634 89.4767 74.3452 89.6117 74.4849C89.7466 74.6246 89.8224 74.8113 89.8232 75.0058V75.5117C89.8253 75.8478 89.738 76.1784 89.5703 76.4693L89.2128 76.9839L90.8451 79.9371H90.2033L88.864 77.4986L88.6862 77.7717ZM88.9861 76.3712C89.1447 76.1272 89.2318 75.8433 89.2372 75.552V75.0776C89.2314 74.9997 89.1964 74.9268 89.1393 74.8737C89.0823 74.8206 89.0073 74.791 88.9294 74.791C88.8516 74.791 88.7766 74.8206 88.7195 74.8737C88.6624 74.9268 88.6275 74.9997 88.6216 75.0776V75.6238C88.6517 75.892 88.7404 76.1502 88.8815 76.38L88.9286 76.4693L88.9861 76.3712Z" fill="#30B78E"/>
<path d="M102.201 75.7288V75.0776C102.201 74.9954 102.169 74.9166 102.111 74.8585C102.053 74.8004 101.974 74.7677 101.892 74.7677C101.811 74.7677 101.732 74.8004 101.674 74.8585C101.616 74.9166 101.584 74.9954 101.584 75.0776V75.6238C101.612 75.891 101.698 76.149 101.835 76.38L102.532 77.6842C102.696 77.9535 102.786 78.2615 102.792 78.5769V79.2929C102.791 79.3881 102.771 79.4821 102.734 79.5696C102.697 79.6571 102.643 79.7363 102.575 79.8028C102.507 79.8693 102.427 79.9217 102.339 79.9571C102.251 79.9924 102.156 80.01 102.062 80.0089H101.695C101.511 80.0001 101.336 79.9214 101.206 79.7885C101.077 79.6557 101.002 79.4786 100.998 79.2929V78.7047C100.993 78.6425 101.005 78.58 101.034 78.5245C101.063 78.4691 101.106 78.4229 101.16 78.3914C101.209 78.3756 101.444 78.2706 101.591 78.2058V79.1879C101.591 79.2286 101.6 79.2687 101.616 79.3061C101.632 79.3435 101.655 79.3773 101.684 79.4057C101.713 79.4341 101.748 79.4564 101.785 79.4714C101.823 79.4865 101.863 79.4939 101.904 79.4933C101.944 79.4928 101.984 79.4842 102.022 79.4681C102.059 79.452 102.093 79.4287 102.121 79.3995C102.149 79.3703 102.171 79.3358 102.186 79.298C102.201 79.2602 102.209 79.2198 102.208 79.1791V78.5367C102.179 78.2668 102.093 78.0061 101.957 77.7717L101.259 76.4763C101.096 76.207 101.006 75.8989 101 75.5835V75.0041C101.001 74.8086 101.078 74.6214 101.214 74.4819C101.351 74.3424 101.536 74.2616 101.73 74.2566H102.097C102.287 74.2677 102.466 74.3512 102.597 74.49C102.728 74.6289 102.802 74.8127 102.803 75.0041V75.2211C102.808 75.2834 102.796 75.3459 102.767 75.4013C102.738 75.4568 102.694 75.503 102.641 75.5345C102.583 75.559 102.355 75.664 102.201 75.7288Z" fill="#30B78E"/>
<path d="M109.531 79.3716C109.466 79.5169 109.368 79.7427 109.344 79.79C109.311 79.843 109.264 79.8856 109.207 79.9129C109.151 79.9401 109.089 79.9509 109.027 79.944H107.729V74.4735C107.733 74.4296 107.753 74.3886 107.785 74.3587C107.817 74.3289 107.86 74.3124 107.904 74.3125H109.423L109.227 74.7309C109.197 74.7853 109.152 74.8296 109.097 74.8583C109.042 74.8869 108.98 74.8986 108.919 74.8919H108.448C108.429 74.8909 108.411 74.8938 108.394 74.9003C108.377 74.9068 108.362 74.9167 108.349 74.9296C108.336 74.9425 108.326 74.9579 108.319 74.9749C108.312 74.992 108.309 75.0102 108.31 75.0285V76.702H109.182C109.116 76.8455 109.018 77.0801 108.994 77.1274C108.963 77.1804 108.918 77.2232 108.863 77.2505C108.808 77.2779 108.747 77.2887 108.687 77.2814H108.442C108.406 77.2823 108.372 77.2969 108.347 77.3223C108.321 77.3477 108.306 77.3819 108.305 77.418V79.3716H109.531Z" fill="#30B78E"/>
<path d="M115.772 75.8493C115.78 75.912 115.769 75.9757 115.74 76.0318C115.711 76.0879 115.666 76.1336 115.61 76.1627C115.57 76.1872 115.343 76.2905 115.188 76.3553V75.0686C115.182 74.9907 115.147 74.9179 115.09 74.8647C115.033 74.8116 114.958 74.782 114.88 74.782C114.802 74.782 114.727 74.8116 114.67 74.8647C114.613 74.9179 114.578 74.9907 114.572 75.0686V79.1876C114.578 79.2656 114.613 79.3384 114.67 79.3915C114.727 79.4447 114.802 79.4742 114.88 79.4742C114.958 79.4742 115.033 79.4447 115.09 79.3915C115.147 79.3384 115.182 79.2656 115.188 79.1876V77.5054H115.163C115.034 77.5054 114.952 77.3216 114.952 77.3216L114.759 76.9189H115.488C115.662 76.9189 115.772 77.0152 115.772 77.2323V79.2839C115.769 79.4702 115.695 79.6482 115.565 79.7814C115.435 79.9145 115.26 79.9927 115.074 79.9999H114.717C114.526 80.0008 114.343 79.926 114.208 79.7918C114.072 79.6577 113.995 79.475 113.993 79.2839V74.9723C113.995 74.7812 114.072 74.5986 114.208 74.4644C114.343 74.3302 114.526 74.2554 114.717 74.2564H115.074C115.26 74.2635 115.435 74.3417 115.565 74.4749C115.695 74.6081 115.769 74.7861 115.772 74.9723V75.8493Z" fill="#30B78E"/>
<path d="M122.306 79.2841C122.302 79.4667 122.226 79.6404 122.096 79.7679C121.966 79.8955 121.791 79.9668 121.609 79.9668V79.9755H121.162C121.069 79.9788 120.977 79.9634 120.89 79.9302C120.803 79.8971 120.724 79.8468 120.656 79.7824C120.589 79.718 120.535 79.6407 120.498 79.5551C120.461 79.4695 120.441 79.3774 120.44 79.2841V74.4735C120.444 74.4296 120.464 74.3886 120.496 74.3587C120.528 74.3289 120.571 74.3124 120.615 74.3125H121.024V79.179C121.024 79.2191 121.031 79.2589 121.045 79.2962C121.06 79.3334 121.082 79.3673 121.11 79.3959C121.138 79.4244 121.171 79.4471 121.208 79.4625C121.245 79.4778 121.285 79.4856 121.324 79.4854H121.413C121.454 79.4856 121.494 79.4779 121.531 79.4626C121.568 79.4473 121.602 79.4248 121.631 79.3964C121.66 79.3679 121.682 79.3341 121.698 79.2968C121.714 79.2595 121.722 79.2195 121.722 79.179V74.3125H122.306V79.2841Z" fill="#30B78E"/>
<path d="M128.159 79.944V77.8836C128.159 77.6105 128.014 77.523 127.859 77.523H127.55V79.944H126.966V74.3125H128.03C128.216 74.3116 128.396 74.3845 128.53 74.5155C128.664 74.6465 128.741 74.8251 128.745 75.0127V76.751C128.745 76.751 128.767 77.1939 128.532 77.2499C128.76 77.362 128.745 77.7751 128.745 77.7751V79.9318L128.159 79.944ZM127.859 76.9681C128.014 76.9681 128.159 76.9033 128.159 76.646V75.1335C128.161 75.0939 128.155 75.0542 128.141 75.0171C128.126 74.9801 128.104 74.9467 128.075 74.9192C128.047 74.8917 128.013 74.8708 127.975 74.8579C127.938 74.845 127.898 74.8405 127.859 74.8447H127.55V76.9681H127.859Z" fill="#30B78E"/>
<path d="M134.595 74.2564C134.781 74.2635 134.956 74.3417 135.086 74.4749C135.216 74.6081 135.29 74.7861 135.293 74.9724V79.2997C135.288 79.4849 135.214 79.6614 135.084 79.7932C134.955 79.9249 134.78 80.002 134.595 80.0087H134.149C133.959 80.0088 133.777 79.9349 133.641 79.8026C133.504 79.6703 133.424 79.49 133.418 79.2997V74.9724C133.419 74.8772 133.439 74.7832 133.476 74.6957C133.514 74.6082 133.568 74.5289 133.636 74.4625C133.704 74.396 133.784 74.3436 133.872 74.3082C133.96 74.2728 134.054 74.2552 134.149 74.2564H134.595ZM134.402 79.4923C134.443 79.4923 134.483 79.4841 134.521 79.4684C134.558 79.4526 134.592 79.4294 134.621 79.4003C134.65 79.3711 134.673 79.3366 134.688 79.2986C134.703 79.2606 134.711 79.2199 134.71 79.1789V75.0774C134.711 75.0363 134.704 74.9954 134.688 74.9572C134.673 74.919 134.651 74.8842 134.622 74.8549C134.593 74.8256 134.559 74.8023 134.521 74.7864C134.483 74.7705 134.443 74.7623 134.402 74.7623H134.311C134.229 74.7654 134.152 74.7998 134.095 74.8585C134.038 74.9171 134.005 74.9954 134.004 75.0774V79.1789C134.005 79.2607 134.038 79.3389 134.095 79.3972C134.152 79.4555 134.23 79.4896 134.311 79.4923H134.402Z" fill="#30B78E"/>
</g>
<defs>
<clipPath id="clip0">
<rect width="174.483" height="80" fill="white"/>
</clipPath>
</defs>
</svg>
