<svg width="223" height="158" viewBox="0 0 223 158" fill="none" xmlns="http://www.w3.org/2000/svg">
<g clip-path="url(#clip0)">
<path d="M99.3331 121.476C99.3331 121.476 114.643 130.709 116.665 181.492C118.398 232.275 121.575 317.683 121.575 317.683H95.5779L82.2903 152.061L85.7566 121.476H99.3331Z" fill="#FAC030"/>
<path d="M64.0921 128.112C64.0921 128.112 48.4937 146.002 50.8046 177.741L51.6712 317.972L81.1349 317.106L90.3784 126.381L64.0921 128.112Z" fill="#FAC030"/>
<path d="M86.9121 209.192L88.3564 168.508L99.6219 153.215" stroke="#EAAE28" stroke-width="0.75" stroke-miterlimit="10"/>
<path d="M196.101 64.6331L162.882 96.084C158.549 100.124 151.617 98.9694 148.728 93.7757L145.551 88.0049L190.324 55.3998L196.101 64.6331Z" fill="#E0895A"/>
<path d="M189.457 60.0163C191.191 65.21 196.968 68.384 202.167 66.6527C207.367 64.9215 210.544 59.1507 208.811 53.9569C207.078 48.7632 201.301 45.5892 196.101 47.3205C190.902 49.0517 187.724 54.8225 189.457 60.0163Z" fill="#E0895A"/>
<path d="M196.679 47.032L205.922 41.2612C206.789 40.6841 207.656 40.9727 208.233 41.5498C208.811 42.1268 208.522 42.9925 207.944 43.5695L198.99 51.3601L196.679 47.032Z" fill="#E0895A"/>
<path d="M157.683 81.6569L114.932 65.7871L116.954 85.985C116.954 85.985 140.062 96.0839 154.505 98.3922C168.948 100.701 157.683 81.6569 157.683 81.6569Z" fill="#E0895A"/>
<path d="M103.666 65.21C103.666 65.21 107.71 59.1507 117.82 63.4788C127.93 67.8069 146.417 73.8662 146.417 73.8662L130.241 101.278L99.9108 89.736L103.666 65.21Z" fill="#1FA5F8"/>
<path d="M62.9367 58.8622L85.4678 56.8424L113.776 62.0361C113.776 62.0361 115.509 102.72 110.887 123.784C110.021 127.535 106.843 129.843 103.088 129.843L62.6478 130.42C62.6478 130.42 57.1595 126.381 56.8706 118.013L59.7592 62.6132C60.0481 60.5934 61.2035 59.1507 62.9367 58.8622Z" fill="#1FA5F8"/>
<path d="M115.22 94.3527L116.665 78.7715" stroke="#1C96D3" stroke-width="0.75" stroke-miterlimit="10"/>
<path d="M30.5843 128.978C30.5843 128.112 25.3849 119.167 25.3849 119.167L40.1167 88.5819C42.1388 82.5225 55.1375 61.459 60.3369 64.9215C64.0921 67.5184 61.7812 91.4673 59.7592 95.5069L44.1608 125.515L30.5843 128.978Z" fill="#E0895A"/>
<path d="M65.2476 58.8622C65.2476 58.8622 52.2489 59.7278 47.3382 67.8069C40.9833 77.9059 30.0066 94.0642 30.0066 94.0642L63.2255 106.471L65.2476 58.8622Z" fill="#1FA5F8"/>
<path d="M58.3149 104.452L70.7359 83.0996" stroke="#1C96D3" stroke-width="0.75" stroke-miterlimit="10"/>
<path d="M39.8279 113.396L75.9354 139.654L70.1582 148.021L30.8732 130.997C24.8072 128.4 23.074 120.61 27.4069 115.416C30.5844 111.954 35.7838 111.088 39.8279 113.396Z" fill="#E0895A"/>
<path d="M69.2916 146.867C69.2916 146.867 74.2022 158.697 83.4458 157.543C94.1336 156.1 95.0002 147.733 90.0896 146.001L82.868 146.578C82.868 146.578 82.868 141.962 78.2463 139.942C77.0908 139.365 75.9354 139.076 74.4911 139.076L69.2916 146.867Z" fill="#E0895A"/>
<path d="M76.802 139.076L86.9121 140.808C87.4898 140.808 88.0675 141.673 88.0675 142.25C88.0675 143.116 87.4898 143.693 86.6232 143.693L76.802 144.559V139.076Z" fill="#E0895A"/>
<path d="M118.109 27.4114C114.932 24.8145 111.465 19.0437 111.465 19.0437L108.577 11.5416L99.0442 14.1385L103.666 23.6603L106.266 25.3916L86.9121 47.8978C86.9121 47.8978 101.066 61.4592 114.354 52.803C125.619 45.5894 123.886 32.3166 118.109 27.4114Z" fill="#201C30"/>
<path d="M65.2476 16.4468C65.2476 16.4468 64.0921 23.3718 58.3149 27.4113C52.5377 31.4509 50.8046 45.5894 62.0701 52.8029C75.6465 61.4591 89.5118 47.8977 89.5118 47.8977L65.2476 16.4468Z" fill="#201C30"/>
<path d="M103.377 3.75106C103.377 3.75106 76.2242 -8.07912 66.9807 10.099C61.4924 20.775 68.1362 39.2416 81.4237 44.4353C94.1336 49.3405 90.6673 8.07917 90.6673 8.07917L103.377 3.75106Z" fill="#201C30"/>
<path d="M99.9108 29.1426C99.6219 32.6051 102.222 35.4905 105.688 35.7791C109.154 36.0676 112.043 33.4708 112.332 30.0083C112.621 26.5458 110.021 23.6604 106.555 23.3718C103.088 23.3718 100.2 25.6802 99.9108 29.1426Z" fill="#CC6E44"/>
<path d="M97.8888 46.7436L96.7333 60.3051C96.4445 64.9217 93.267 67.23 88.6452 66.9415C84.6012 66.653 81.1349 64.3446 80.846 60.3051L83.4458 39.2416L97.8888 46.7436Z" fill="#E0895A"/>
<path d="M97.311 56.2654L81.7126 42.127L98.1776 45.3009L97.311 56.2654Z" fill="#CC6E44"/>
<path d="M93.8447 48.7633C101.933 48.7633 108.577 42.7039 108.865 36.0675L109.443 20.7748C109.732 12.6957 103.666 5.48215 95.5779 4.90506C87.2009 4.32798 78.5351 10.3873 77.6685 18.755L77.3797 31.1623C77.0908 40.6841 84.3123 47.8976 93.8447 48.7633Z" fill="#E0895A"/>
<path d="M79.6905 29.7197C79.6905 29.7197 80.2683 24.2374 84.89 21.352C89.5118 18.7551 102.222 14.7156 101.066 4.90516C101.066 4.90516 81.4237 -0.865653 73.9133 12.1187C66.9807 24.8145 79.6905 29.7197 79.6905 29.7197Z" fill="#201C30"/>
<path d="M69.8693 29.7198C69.5805 33.1823 72.1802 36.0677 75.6465 36.3562C79.1129 36.6448 82.0015 34.0479 82.2903 30.5854C82.5792 27.1229 79.9794 24.2375 76.5131 23.949C73.0468 23.949 70.1582 26.2573 69.8693 29.7198Z" fill="#E0895A"/>
<path d="M95.8667 4.61657C95.8667 4.61657 97.311 12.6957 109.732 18.178C109.732 18.178 112.909 12.4072 104.533 4.61657C103.666 4.03948 102.799 3.4624 101.644 3.4624H91.8227L95.8667 4.61657Z" fill="#201C30"/>
<path d="M74.4911 57.7082L87.2009 56.2655L103.955 60.0165C103.955 60.0165 103.955 71.8467 90.3784 71.2696C76.802 70.404 74.4911 57.7082 74.4911 57.7082Z" fill="#E0895A"/>
<path d="M89.6667 80.3334L73 100.333H88L86.3333 113.667L103 93.6667H88L89.6667 80.3334Z" stroke="white" stroke-width="3" stroke-linecap="round" stroke-linejoin="round"/>
</g>
<defs>
<clipPath id="clip0">
<rect width="223" height="158" fill="white" transform="matrix(-1 0 0 1 223 0)"/>
</clipPath>
</defs>
</svg>
