<svg width="242" height="163" viewBox="0 0 242 163" fill="none" xmlns="http://www.w3.org/2000/svg">
<g clip-path="url(#clip0)">
<path d="M103.153 141.267V159.076L150.343 231.822L179.685 311.209L150.948 322.68L121 249.933L64.735 177.489C64.735 177.489 45.98 153.039 68.365 131.607L103.153 141.267Z" fill="#005FEA"/>
<path d="M106.48 76.9722L128.26 92.9704L154.577 59.163L162.745 63.6907C162.745 63.6907 153.065 96.8944 140.057 113.798C137.637 116.817 133.705 117.722 130.377 116.515C123.42 113.798 110.11 107.459 93.775 93.5741L106.48 76.9722Z" fill="#EFA987"/>
<path d="M113.135 81.4999L96.4975 108.968L80.1625 96.5925C73.5075 91.461 71.995 82.1036 76.5325 75.161C81.675 67.3129 92.2625 64.8981 99.825 70.9351L113.135 81.4999Z" fill="#E9B022"/>
<path d="M99.825 70.9351L74.1125 62.1814C74.1125 62.1814 52.03 82.1036 68.6675 131.909L103.153 141.267C103.153 141.267 105.875 127.381 106.48 111.383C119.488 92.9703 99.825 70.9351 99.825 70.9351Z" fill="#F7C12E"/>
<path d="M228.085 100.517H162.443C154.275 100.517 147.62 93.8759 147.62 85.7259V21.1296C147.62 12.9796 154.275 6.33887 162.443 6.33887H228.387C236.555 6.33887 243.21 12.9796 243.21 21.1296V85.7259C243.21 93.8759 236.555 100.517 228.085 100.517Z" fill="#30B78E"/>
<path d="M100.733 86.3295L119.79 109.27L151.855 80.8961L158.51 87.235C158.51 87.235 140.663 117.118 124.025 130.098C121 132.513 117.068 132.513 114.043 130.098C107.993 125.57 96.8 116.213 84.3975 98.7054L100.733 86.3295Z" fill="#FDBC9B"/>
<path d="M175.45 71.5388C175.148 70.9351 174.24 70.935 173.635 71.2369L168.795 74.2554L168.493 73.9536L173.333 68.8221C173.938 68.2184 173.938 67.3128 173.333 66.7091C172.728 66.1054 171.518 66.1054 170.913 66.7091L165.468 71.5388C165.165 71.5388 165.165 71.2369 164.863 71.2369L170.005 63.9925C170.308 63.3888 170.308 62.4832 169.703 62.1813C169.098 61.5776 168.19 61.5776 167.585 62.1813L161.535 68.5202C161.233 68.2184 161.233 68.2184 160.93 68.2184L164.258 62.1813C164.56 61.5776 164.56 60.6721 163.653 60.3702C163.048 59.7665 161.838 60.0684 161.535 60.9739L158.51 66.4073C158.51 66.4073 157.3 69.1239 155.788 72.1425L154.88 67.011C154.88 66.4073 154.275 66.1054 153.973 66.1054C153.065 65.8036 152.46 66.4073 152.158 67.3128C151.855 70.6332 152.158 80.5943 151.553 81.198L158.208 87.5369L171.215 76.6702L174.845 73.3499C175.753 72.7462 175.753 71.8406 175.45 71.5388Z" fill="#FDBC9B"/>
<path d="M106.177 92.0648L82.885 115.006L70.18 99.0074C65.0375 92.3667 65.945 83.0093 71.995 77.2741C78.9525 70.9352 89.8425 72.1426 95.59 79.6889L106.177 92.0648Z" fill="#FAC030"/>
<path d="M91.0526 107.459L82.8851 115.005L70.1801 99.0073" stroke="#EAAE28" stroke-width="0.75" stroke-miterlimit="10"/>
<path d="M106.177 92.0647L94.0775 77.5758" stroke="#EAAE28" stroke-width="0.75" stroke-miterlimit="10"/>
<path d="M96.8 38.3351L109.505 35.0148C118.278 40.1463 119.488 54.3333 119.488 54.3333H97.4051L96.8 38.3351Z" fill="#171E21"/>
<path d="M101.035 47.6927L94.0776 68.2186L75.3226 60.6723L85.9101 29.8834L101.035 47.6927Z" fill="#FDBC9B"/>
<path d="M97.1026 59.7666C97.1026 59.4648 93.4726 47.0889 93.4726 47.0889L101.338 50.7111L97.1026 59.7666Z" fill="#EFA987"/>
<path d="M106.48 5.13164C106.48 5.13164 116.16 6.6409 116.765 19.0168C116.765 19.0168 117.067 27.7705 117.37 40.4483C117.672 47.0891 111.32 52.5224 104.967 51.315C101.035 50.4094 96.4975 48.9002 92.565 45.5798L86.8175 40.4483C73.81 25.6576 85.6075 2.41497 105.27 5.13164C105.572 5.13164 106.177 5.13164 106.48 5.13164Z" fill="#FDBC9B"/>
<path d="M115.857 31.6946L120.395 35.9205C121 36.5242 120.697 37.4298 119.79 37.7316L115.252 38.3353L115.857 31.6946Z" fill="#FDBC9B"/>
<path d="M93.775 27.1667C93.775 27.1667 88.0275 -2.41482 113.74 9.65925C113.74 9.65925 103.758 -6.64075 81.3725 3.32036C76.5325 5.43333 71.6925 11.1685 70.785 16.3C69.2725 24.45 73.81 31.3926 81.3725 44.3722L89.8425 34.4111C90.145 31.9963 93.775 27.1667 93.775 27.1667Z" fill="#171E21"/>
<path d="M85.305 18.4131L90.4475 30.4872C123.42 20.2242 108.295 4.82977 108.295 4.82977C108.295 4.82977 81.9775 -2.71652 85.305 18.4131Z" fill="#171E21"/>
<path d="M101.943 24.1481L97.405 31.0907L91.6575 23.2426L101.943 24.1481Z" fill="#171E21"/>
<path d="M103.757 6.64073C103.757 6.64073 114.95 8.45184 116.765 16.3C116.765 16.3 125.537 7.24443 107.387 3.32036C96.195 1.20739 103.757 6.64073 103.757 6.64073Z" fill="#171E21"/>
<path d="M91.6575 34.1093C91.6575 34.1093 89.54 48.9001 91.0525 54.3334L63.525 52.8241C63.525 52.8241 68.6675 43.1649 68.97 35.6186C69.2725 29.5815 66.2475 16.3001 75.3225 7.24451L79.86 24.7519L91.6575 34.1093Z" fill="#171E21"/>
<path d="M84.3975 31.0909C84.095 34.7131 86.8175 37.7316 90.4475 38.0335C94.0775 38.3353 97.1025 35.6187 97.405 31.9964C97.7075 28.3742 94.985 25.3557 91.355 25.0538C88.0275 25.0538 84.7 27.4686 84.3975 31.0909Z" fill="#FDBC9B"/>
<path d="M74.1125 62.1816C74.1125 62.1816 83.7925 71.539 99.825 70.9353L88.6325 57.6538L77.7425 55.239L74.1125 62.1816Z" fill="#FDBC9B"/>
<path d="M208.417 49.0834H181.583C179.466 49.0834 177.75 50.7996 177.75 52.9167V66.3334C177.75 68.4505 179.466 70.1667 181.583 70.1667H208.417C210.534 70.1667 212.25 68.4505 212.25 66.3334V52.9167C212.25 50.7996 210.534 49.0834 208.417 49.0834Z" stroke="white" stroke-width="6" stroke-linecap="round" stroke-linejoin="round"/>
<path d="M185.417 49.0834V41.4167C185.417 38.8751 186.426 36.4375 188.224 34.6403C190.021 32.843 192.458 31.8334 195 31.8334C197.542 31.8334 199.979 32.843 201.776 34.6403C203.574 36.4375 204.583 38.8751 204.583 41.4167V49.0834" stroke="white" stroke-width="6" stroke-linecap="round" stroke-linejoin="round"/>
</g>
<defs>
<clipPath id="clip0">
<rect width="242" height="163" fill="white"/>
</clipPath>
</defs>
</svg>
